<svg width="25" height="24" viewBox="0 0 25 24" fill="none" xmlns="http://www.w3.org/2000/svg">
<path d="M2.33337 5.2C2.33337 4.07989 2.33337 3.51984 2.55136 3.09202C2.74311 2.71569 3.04907 2.40973 3.42539 2.21799C3.85322 2 4.41327 2 5.53337 2H7.13337C8.25348 2 8.81353 2 9.24136 2.21799C9.61768 2.40973 9.92364 2.71569 10.1154 3.09202C10.3334 3.51984 10.3334 4.07989 10.3334 5.2V6.8C10.3334 7.92011 10.3334 8.48016 10.1154 8.90798C9.92364 9.28431 9.61768 9.59027 9.24136 9.78201C8.81353 10 8.25348 10 7.13337 10H5.53337C4.41327 10 3.85322 10 3.42539 9.78201C3.04907 9.59027 2.74311 9.28431 2.55136 8.90798C2.33337 8.48016 2.33337 7.92011 2.33337 6.8V5.2Z" stroke="#232323" stroke-width="1.5" stroke-linecap="round" stroke-linejoin="round"/>
<path d="M14.3334 5.2C14.3334 4.07989 14.3334 3.51984 14.5514 3.09202C14.7431 2.71569 15.0491 2.40973 15.4254 2.21799C15.8532 2 16.4133 2 17.5334 2H19.1334C20.2535 2 20.8135 2 21.2414 2.21799C21.6177 2.40973 21.9236 2.71569 22.1154 3.09202C22.3334 3.51984 22.3334 4.07989 22.3334 5.2V6.8C22.3334 7.92011 22.3334 8.48016 22.1154 8.90798C21.9236 9.28431 21.6177 9.59027 21.2414 9.78201C20.8135 10 20.2535 10 19.1334 10H17.5334C16.4133 10 15.8532 10 15.4254 9.78201C15.0491 9.59027 14.7431 9.28431 14.5514 8.90798C14.3334 8.48016 14.3334 7.92011 14.3334 6.8V5.2Z" stroke="#232323" stroke-width="1.5" stroke-linecap="round" stroke-linejoin="round"/>
<path d="M2.33337 17.2C2.33337 16.0799 2.33337 15.5198 2.55136 15.092C2.74311 14.7157 3.04907 14.4097 3.42539 14.218C3.85322 14 4.41327 14 5.53337 14H7.13337C8.25348 14 8.81353 14 9.24136 14.218C9.61768 14.4097 9.92364 14.7157 10.1154 15.092C10.3334 15.5198 10.3334 16.0799 10.3334 17.2V18.8C10.3334 19.9201 10.3334 20.4802 10.1154 20.908C9.92364 21.2843 9.61768 21.5903 9.24136 21.782C8.81353 22 8.25348 22 7.13337 22H5.53337C4.41327 22 3.85322 22 3.42539 21.782C3.04907 21.5903 2.74311 21.2843 2.55136 20.908C2.33337 20.4802 2.33337 19.9201 2.33337 18.8V17.2Z" stroke="#232323" stroke-width="1.5" stroke-linecap="round" stroke-linejoin="round"/>
<path d="M14.3334 17.2C14.3334 16.0799 14.3334 15.5198 14.5514 15.092C14.7431 14.7157 15.0491 14.4097 15.4254 14.218C15.8532 14 16.4133 14 17.5334 14H19.1334C20.2535 14 20.8135 14 21.2414 14.218C21.6177 14.4097 21.9236 14.7157 22.1154 15.092C22.3334 15.5198 22.3334 16.0799 22.3334 17.2V18.8C22.3334 19.9201 22.3334 20.4802 22.1154 20.908C21.9236 21.2843 21.6177 21.5903 21.2414 21.782C20.8135 22 20.2535 22 19.1334 22H17.5334C16.4133 22 15.8532 22 15.4254 21.782C15.0491 21.5903 14.7431 21.2843 14.5514 20.908C14.3334 20.4802 14.3334 19.9201 14.3334 18.8V17.2Z" stroke="#232323" stroke-width="1.5" stroke-linecap="round" stroke-linejoin="round"/>
</svg>
