<svg width="25" height="24" viewBox="0 0 25 24" fill="none" xmlns="http://www.w3.org/2000/svg">
<path d="M9.83325 10C9.83325 10.2761 9.60939 10.5 9.33325 10.5C9.05711 10.5 8.83325 10.2761 8.83325 10M9.83325 10C9.83325 9.72386 9.60939 9.5 9.33325 9.5C9.05711 9.5 8.83325 9.72386 8.83325 10M9.83325 10H8.83325M15.8333 10C15.8333 10.2761 15.6094 10.5 15.3333 10.5C15.0571 10.5 14.8333 10.2761 14.8333 10M15.8333 10C15.8333 9.72386 15.6094 9.5 15.3333 9.5C15.0571 9.5 14.8333 9.72386 14.8333 10M15.8333 10H14.8333M16.3335 15C15.4213 16.2144 13.9689 17 12.3331 17C10.6973 17 9.24497 16.2144 8.33276 15M12.3333 22V22C17.8561 22 22.3333 17.5228 22.3333 12V12C22.3333 6.47715 17.8561 2 12.3333 2V2C6.8104 2 2.33325 6.47715 2.33325 12V12C2.33325 17.5228 6.8104 22 12.3333 22Z" stroke="black" stroke-width="1.5" stroke-linecap="round" stroke-linejoin="round"/>
</svg>
