<svg width="24" height="24" viewBox="0 0 24 24" fill="none" xmlns="http://www.w3.org/2000/svg">
<g clip-path="url(#clip0_346_1441)">
<path d="M5.54664 14.4181L4.73971 17.4305L1.79041 17.4929C0.909006 15.8581 0.409058 13.9876 0.409058 12C0.409058 10.0779 0.876497 8.2654 1.70507 6.66943H1.7057L4.3314 7.15082L5.48162 9.76077C5.24088 10.4626 5.10967 11.216 5.10967 12C5.10976 12.8508 5.26388 13.666 5.54664 14.4181Z" fill="#FBBB00"/>
<path d="M23.3883 9.83447C23.5214 10.5356 23.5908 11.2597 23.5908 11.9998C23.5908 12.8296 23.5035 13.6391 23.3373 14.4199C22.7731 17.0769 21.2987 19.397 19.2563 21.0388L19.2557 21.0382L15.9485 20.8694L15.4804 17.9475C16.8356 17.1527 17.8948 15.9089 18.4527 14.4199H12.2547V9.83447H18.5431H23.3883Z" fill="#518EF8"/>
<path d="M19.2553 21.0386L19.2559 21.0393C17.2695 22.6359 14.7462 23.5912 11.9995 23.5912C7.58537 23.5912 3.74765 21.124 1.78992 17.4932L5.54614 14.4185C6.52499 17.0308 9.04506 18.8905 11.9995 18.8905C13.2694 18.8905 14.4591 18.5472 15.4799 17.9479L19.2553 21.0386Z" fill="#28B446"/>
<path d="M19.3983 3.07762L15.6433 6.15175C14.5868 5.49134 13.3379 5.10984 11.9999 5.10984C8.97857 5.10984 6.41136 7.0548 5.48155 9.76087L1.70559 6.66954H1.70496C3.63403 2.95026 7.52015 0.40918 11.9999 0.40918C14.8122 0.40918 17.3909 1.41098 19.3983 3.07762Z" fill="#F14336"/>
</g>
<defs>
<clipPath id="clip0_346_1441">
<rect width="23.1818" height="23.1818" fill="white" transform="translate(0.409058 0.40918)"/>
</clipPath>
</defs>
</svg>
