<svg width="25" height="24" viewBox="0 0 25 24" fill="none" xmlns="http://www.w3.org/2000/svg">
<path d="M6.79367 4.96556C4.12685 6.90311 2.79344 7.87189 2.26974 9.30291C2.22773 9.41771 2.18994 9.534 2.15645 9.65157C1.73901 11.1171 2.24832 12.6846 3.26696 15.8197C4.28559 18.9547 4.7949 20.5222 5.99405 21.4625C6.09025 21.5379 6.18918 21.6098 6.29064 21.678C6.71729 21.9647 7.18756 22.1546 7.75 22.2805V18.8197C7.75 16.1963 9.87665 14.0697 12.5 14.0697C15.1234 14.0697 17.25 16.1963 17.25 18.8197V22.2805C17.8124 22.1546 18.2827 21.9647 18.7094 21.678C18.8108 21.6098 18.9098 21.5379 19.006 21.4625C20.2051 20.5222 20.7144 18.9547 21.7331 15.8197C22.7517 12.6846 23.261 11.1171 22.8436 9.65157C22.8101 9.534 22.7723 9.41771 22.7303 9.30291C22.2066 7.87189 20.8732 6.90312 18.2064 4.96557C15.5395 3.02801 14.2061 2.05923 12.6833 2.00336C12.5611 1.99888 12.4389 1.99888 12.3167 2.00336C10.7939 2.05923 9.46048 3.02801 6.79367 4.96556Z" fill="black"/>
<path d="M15.75 22.4732V18.8197C15.75 17.0247 14.2949 15.5697 12.5 15.5697C10.7051 15.5697 9.25 17.0247 9.25 18.8197V22.4732C10.123 22.5279 11.1792 22.5279 12.5 22.5279C13.8208 22.5279 14.877 22.5279 15.75 22.4732Z" fill="black"/>
</svg>
