<!-- Generated by IcoMoon.io -->
<svg version="1.1" xmlns="http://www.w3.org/2000/svg" width="40" height="40" viewBox="0 0 40 40">
<title>notifications-outline</title>
<path d="M11.994 15.982v14.010h16.012v-14.010c0-4.422-3.584-8.006-8.006-8.006s-8.006 3.584-8.006 8.006v0zM16.057 4.634c-0.032-0.19-0.050-0.408-0.050-0.631 0-2.211 1.792-4.003 4.003-4.003s4.003 1.792 4.003 4.003c0 0.223-0.018 0.441-0.053 0.654l0.003-0.023c4.725 1.687 8.046 6.124 8.046 11.336 0 0.004 0 0.009 0 0.013v-0.001 12.009l6.004 4.003v2.001h-36.027v-2.001l6.004-4.003v-12.009c0-0.002 0-0.003 0-0.005 0-5.22 3.33-9.662 7.982-11.317l0.084-0.026zM24.003 35.997c0 2.211-1.792 4.003-4.003 4.003s-4.003-1.792-4.003-4.003v0h8.006z"></path>
</svg>
