<!-- Generated by IcoMoon.io -->
<svg version="1.1" xmlns="http://www.w3.org/2000/svg" width="40" height="40" viewBox="0 0 40 40">
<title>notifications</title>
<path d="M8 16c0-0.002 0-0.003 0-0.005 0-5.216 3.328-9.655 7.976-11.309l0.084-0.026c-0.032-0.19-0.050-0.408-0.050-0.63 0-2.209 1.791-4 4-4s4 1.791 4 4c0 0.223-0.018 0.441-0.053 0.654l0.003-0.023c4.722 1.686 8.040 6.119 8.040 11.328 0 0.004 0 0.009 0 0.013v-0.001 12l6 4v2h-36v-2l6-4v-12zM24 36c0 2.209-1.791 4-4 4s-4-1.791-4-4v0h8z"></path>
</svg>
